<?xml version="1.0" encoding="utf-8"?>
<!-- Generator: Adobe Illustrator 19.0.0, SVG Export Plug-In . SVG Version: 6.00 Build 0)  -->
<svg version="1.1" id="Warstwa_1" xmlns="http://www.w3.org/2000/svg" xmlns:xlink="http://www.w3.org/1999/xlink" x="0px" y="0px"
	 viewBox="-41 164.9 512 512" style="enable-background:new -41 164.9 512 512;" xml:space="preserve">
<style type="text/css">
	.st0{fill:#FFFFFF;}
</style>
<g>
	<path class="st0" d="M108.8,207.9c-17.1,0-31,13.9-31,31c0,3.9,3.1,7,7,7c3.9,0,7-3.1,7-7c0-9.4,7.6-17,17-17h45.6c3.9,0,7-3.1,7-7
		s-3.1-7-7-7H108.8z"/>
	<path class="st0" d="M196.3,207.9h-12.4c-3.9,0-7,3.1-7,7s3.1,7,7,7h12.4c3.9,0,7-3.1,7-7C203.3,211,200.2,207.9,196.3,207.9
		L196.3,207.9z"/>
	<path class="st0" d="M157.9,197.9h38.4c3.9,0,7-3.1,7-7c0-3.9-3.1-7-7-7l0,0h-38.4c-3.9,0-7,3.1-7,7S154,197.9,157.9,197.9z"/>
	<path class="st0" d="M60.8,245.9c3.9,0,7-3.1,7-7c0,0,0,0,0,0c0-22.6,18.4-41,41-41h18.5c3.9,0,7-3.1,7-7s-3.1-7-7-7h-18.5
		c-30.4,0-55,24.6-55,55C53.8,242.8,56.9,245.9,60.8,245.9z"/>
	<path class="st0" d="M290.9,207.9c-17.1,0-31,13.9-31,31c0,3.9,3.1,7,7,7s7-3.1,7-7c0-9.4,7.6-17,17-17H312c3.9,0,7-3.1,7-7
		s-3.1-7-7-7l0,0H290.9z"/>
	<path class="st0" d="M334.5,214.9c0,3.9,3.1,7,7,7c0,0,0,0,0,0h36.9c3.9,0,7-3.1,7-7s-3.1-7-7-7h-36.9
		C337.6,207.9,334.5,211,334.5,214.9C334.5,214.9,334.5,214.9,334.5,214.9z"/>
	<path class="st0" d="M368.7,197.9h9.6c3.9,0,7-3.1,7-7c0-3.9-3.1-7-7-7h-9.6c-3.9,0-7,3.1-7,7S364.9,197.9,368.7,197.9z"/>
	<path class="st0" d="M242.9,245.9c3.9,0,7-3.1,7-7c0-22.6,18.4-41,41-41h39.4c3.9,0,7-3.1,7-7s-3.1-7-7-7h-39.4
		c-30.4,0-55,24.6-55,55C235.9,242.8,239,245.9,242.9,245.9C242.9,245.9,242.9,245.9,242.9,245.9z"/>
	<path class="st0" d="M397,415.8c-3.9,0-7,3.1-7,7v24c0,3.9,3.1,7,7,7s7-3.1,7-7v-24C404,419,400.9,415.8,397,415.8z"/>
	<path class="st0" d="M445,619.9h-17V371.5l17.8-2.1c3.8-0.6,6.5-4.1,5.9-7.9c-0.5-3.7-3.9-6.3-7.6-6l-142.6,17.1l-3.8-80.5
		c2.5-1.1,4.1-3.6,4.1-6.4v-24c0-3.9-3.1-7-7-7h-80c-3.9,0-7,3.1-7,7v24c0,2.8,1.6,5.3,4.2,6.4l-4.4,91.8l-87.2,10.5L115.7,292
		c2.5-1.1,4.1-3.6,4.1-6.4v-24c0-3.9-3.1-7-7-7h-80c-3.9,0-7,3.1-7,7v24c0,2.8,1.6,5.3,4.2,6.4L17.2,559.9h-5.3
		c-3.7,0-6.8,2.9-7,6.7l-2.6,53.3H-15c-3.9,0-7,3.1-7,7c0,0,0,0,0,0v24c0,3.9,3.1,7,7,7c0,0,0,0,0,0h460c3.9,0,7-3.1,7-7
		c0,0,0,0,0,0v-24C452,623,448.9,619.9,445,619.9C445,619.9,445,619.9,445,619.9z M374.7,619.9v-73c0-3.9-3.1-7-7-7h-48
		c-3.9,0-7,3.1-7,7c0,0,0,0,0,0v73h-10.8v-73c0-3.9-3.1-7-7-7h-48c-3.9,0-7,3.1-7,7c0,0,0,0,0,0v73H79.8V413.3L414,373.2v246.7
		H374.7z M360.7,619.9h-34v-66h34V619.9z M287.9,619.9h-34v-66h34V619.9z M221.9,268.7h66v10h-66V268.7z M226.1,292.7h57.7l3.9,81.6
		l-65.9,7.9L226.1,292.7z M39.8,268.7h66v10h-66L39.8,268.7z M44,292.7h57.7l4.9,103.4L48,403.1c-3.8,0.5-6.6,4-6.1,7.8
		c0.4,3.5,3.4,6.1,6.9,6.1c0.3,0,0.6,0,0.8,0l16.2-1.9v144.9H31.2L44,292.7z M18.6,573.9h47.2v46H16.3L18.6,573.9z M438,643.9H-8
		v-10h446V643.9z"/>
	<path class="st0" d="M200.8,516.6h-80c-3.9,0-7,3.1-7,7c0,3.9,3.1,7,7,7h80c3.9,0,7-3.1,7-7C207.8,519.7,204.7,516.6,200.8,516.6
		L200.8,516.6z"/>
	<path class="st0" d="M200.8,468.6h-80c-3.9,0-7,3.1-7,7s3.1,7,7,7h80c3.9,0,7-3.1,7-7S204.7,468.6,200.8,468.6L200.8,468.6z"/>
	<path class="st0" d="M200.8,492.6h-80c-3.9,0-7,3.1-7,7s3.1,7,7,7h80c3.9,0,7-3.1,7-7S204.7,492.6,200.8,492.6L200.8,492.6z"/>
	<path class="st0" d="M282.9,480.6h-24c-3.9,0-7,3.1-7,7c0,0,0,0,0,0v24c0,3.9,3.1,7,7,7c0,0,0,0,0,0h24c3.9,0,7-3.1,7-7v-24
		C289.9,483.7,286.8,480.6,282.9,480.6z M275.9,504.6h-10v-10h10V504.6z"/>
	<path class="st0" d="M355.7,480.6h-24c-3.9,0-7,3.1-7,7c0,0,0,0,0,0v24c0,3.9,3.1,7,7,7c0,0,0,0,0,0h24c3.9,0,7-3.1,7-7v-24
		C362.7,483.7,359.6,480.6,355.7,480.6z M348.7,504.6h-10v-10h10V504.6z"/>
</g>
</svg>
