<?xml version="1.0" encoding="utf-8"?>
<!-- Generator: Adobe Illustrator 19.0.0, SVG Export Plug-In . SVG Version: 6.00 Build 0)  -->
<svg version="1.1" id="light" xmlns="http://www.w3.org/2000/svg" xmlns:xlink="http://www.w3.org/1999/xlink" x="0px" y="0px"
	 viewBox="-41 164.9 512 512" style="enable-background:new -41 164.9 512 512;" xml:space="preserve">
<style type="text/css">
	.st0{fill:#FFFFFF;}
</style>
<path class="st0" d="M375,570.2H268.3c-5.9,0-10.7-4.8-10.7-10.7c0-5.9,4.8-10.7,10.7-10.7H375c17.6,0,32-14.4,32-32v-21.3
	c0-5.9,4.8-10.7,10.7-10.7h21.1c5.9,0,10.7-4.8,10.7-10.7v-128c0-5.9-4.8-10.7-10.7-10.7h-21.1c-5.9,0-10.7-4.8-10.7-10.7v-21.3
	c0-17.6-14.4-32-32-32h-64c-5.9,0-10.7-4.8-10.7-10.7c0-5.9,4.8-10.7,10.7-10.7h64c29.4,0,53.3,23.9,53.3,53.3v10.7h10.5
	c17.6,0,32,14.4,32,32v128c0,17.6-14.4,32-32,32h-10.5v10.7C428.3,546.3,404.4,570.2,375,570.2z"/>
<path class="st0" d="M97.7,570.2H12.3c-29.4,0-53.3-23.9-53.3-53.3V303.6c0-29.4,23.9-53.3,53.3-53.3h149.3
	c5.9,0,10.7,4.8,10.7,10.7c0,5.9-4.8,10.7-10.7,10.7H12.3c-17.6,0-32,14.4-32,32v213.3c0,17.6,14.4,32,32,32h85.3
	c5.9,0,10.7,4.8,10.7,10.7C108.3,565.4,103.6,570.2,97.7,570.2z"/>
<path class="st0" d="M157.5,612.9c-1.7,0-3.4-0.4-5-1.2c-4.6-2.4-6.8-7.8-5.1-12.8L192,463.6h-83.7c-4,0-7.6-2.2-9.5-5.7
	c-1.8-3.5-1.6-7.8,0.7-11l147.8-213.3c2.9-4.2,8.4-5.7,13-3.7c4.7,2,7.3,7.1,6.2,12.1l-30,136.4h85.2c4.1,0,7.8,2.3,9.6,6
	c1.8,3.6,1.3,8-1.1,11.2L165.9,608.7C163.8,611.4,160.7,612.9,157.5,612.9L157.5,612.9z M128.7,442.2h78.1c3.4,0,6.6,1.6,8.6,4.4
	c2,2.8,2.6,6.3,1.5,9.6L187.2,546L300,399.6h-76.8c-3.2,0-6.3-1.5-8.3-4s-2.8-5.8-2.1-9l21.2-96.4L128.7,442.2z"/>
</svg>
