<?xml version="1.0" encoding="utf-8"?>
<!-- Generator: Adobe Illustrator 19.0.0, SVG Export Plug-In . SVG Version: 6.00 Build 0)  -->
<svg version="1.1" id="Layer_3" xmlns="http://www.w3.org/2000/svg" xmlns:xlink="http://www.w3.org/1999/xlink" x="0px" y="0px"
	 viewBox="-41 164.9 512 512" style="enable-background:new -41 164.9 512 512;" xml:space="preserve">
<style type="text/css">
	.st0{fill:#FFFFFF;}
</style>
<g>
	<path class="st0" d="M151,412.9c-4.4,0-8,3.6-8,8v32c0,4.4,3.6,8,8,8h128c4.4,0,8-3.6,8-8v-32c0-4.4-3.6-8-8-8H151z M271,444.9H159
		v-16h112V444.9z"/>
	<path class="st0" d="M439,380.9c-13.2,0-24,10.8-24,24v152h-24.2c5.1-6.7,8.2-15,8.2-24v-112c0-4.4-3.6-8-8-8h-24h-8
		c-30.9,0-56,25.1-56,56v8h-52c-11,0-20,9-20,20s9,20,20,20h52v8h-40c-13.2,0-24,10.8-24,24v96c0,13.2,10.8,24,24,24s24-10.8,24-24
		v-72h16v24c0,4.4,3.6,8,8,8h48v48h-32v16h112v-16h-32v-48h48c4.4,0,8-3.6,8-8v-192C463,391.7,452.2,380.9,439,380.9z M247,496.9
		c0-2.2,1.8-4,4-4h92c4.4,0,8-3.6,8-8v-28c0-2.2,1.8-4,4-4s4,1.8,4,4v36c0,4.4-3.6,8-8,8H251C248.8,500.9,247,499.1,247,496.9z
		 M279,556.9c-4.4,0-8,3.6-8,8v80c0,4.4-3.6,8-8,8s-8-3.6-8-8v-96c0-4.4,3.6-8,8-8h48c4.4,0,8-3.6,8-8v-16h32c13.2,0,24-10.8,24-24
		v-36c0-11-9-20-20-20s-20,9-20,20v20h-16v-8c0-22.1,17.9-40,40-40h24v104c0,13.2-10.8,24-24,24h-48H279z M391,652.9h-16v-48h16
		V652.9z M447,588.9H319v-16h40h64c4.4,0,8-3.6,8-8v-160c0-4.4,3.6-8,8-8s8,3.6,8,8V588.9z"/>
	<path class="st0" d="M111,364.9c0-26.5-21.5-48-48-48s-48,21.5-48,48c0,26.5,21.5,48,48,48S111,391.4,111,364.9z M63,396.9
		c-17.6,0-32-14.4-32-32c0-17.6,14.4-32,32-32s32,14.4,32,32C95,382.5,80.6,396.9,63,396.9z"/>
	<path class="st0" d="M179,476.9h-52v-8c0-30.9-25.1-56-56-56h-8H39c-4.4,0-8,3.6-8,8v112c0,9,3.1,17.3,8.2,24H15v-152
		c0-13.2-10.8-24-24-24s-24,10.8-24,24v192c0,4.4,3.6,8,8,8h48v48H-9v16h112v-16H71v-48h48c4.4,0,8-3.6,8-8v-24h16v72
		c0,13.2,10.8,24,24,24s24-10.8,24-24v-96c0-13.2-10.8-24-24-24h-40v-8h52c11,0,20-9,20-20S190,476.9,179,476.9z M55,652.9H39v-48
		h16V652.9z M111,588.9H-17v-184c0-4.4,3.6-8,8-8s8,3.6,8,8v160c0,4.4,3.6,8,8,8h64h40V588.9z M119,540.9h48c4.4,0,8,3.6,8,8v96
		c0,4.4-3.6,8-8,8s-8-3.6-8-8v-80c0-4.4-3.6-8-8-8h-32H71c-13.2,0-24-10.8-24-24v-104h24c22.1,0,40,17.9,40,40v8H95v-20
		c0-11-9-20-20-20s-20,9-20,20v36c0,13.2,10.8,24,24,24h32v16C111,537.3,114.6,540.9,119,540.9z M179,500.9H79c-4.4,0-8-3.6-8-8v-36
		c0-2.2,1.8-4,4-4s4,1.8,4,4v28c0,4.4,3.6,8,8,8h92c2.2,0,4,1.8,4,4S181.2,500.9,179,500.9z"/>
	<path class="st0" d="M415,364.9c0-26.5-21.5-48-48-48s-48,21.5-48,48c0,26.5,21.5,48,48,48S415,391.4,415,364.9z M367,396.9
		c-17.6,0-32-14.4-32-32c0-17.6,14.4-32,32-32s32,14.4,32,32C399,382.5,384.6,396.9,367,396.9z"/>
	<path class="st0" d="M215,308.9c-8.8,0-16-7.2-16-16h-16c0,14.9,10.2,27.3,24,30.9v17.1h16v-17.1c13.8-3.6,24-16,24-30.9
		c0-17.6-14.4-32-32-32c-8.8,0-16-7.2-16-16c0-8.8,7.2-16,16-16s16,7.2,16,16h16c0-14.9-10.2-27.3-24-30.9v-17.1h-16V214
		c-13.8,3.6-24,16-24,30.9c0,17.6,14.4,32,32,32c8.8,0,16,7.2,16,16S223.8,308.9,215,308.9z"/>
	<path class="st0" d="M215,364.9c52.9,0,96-43.1,96-96s-43.1-96-96-96s-96,43.1-96,96S162.1,364.9,215,364.9z M215,188.9
		c44.1,0,80,35.9,80,80s-35.9,80-80,80s-80-35.9-80-80S170.9,188.9,215,188.9z"/>
</g>
</svg>
