<?xml version="1.0" encoding="utf-8"?>
<!-- Generator: Adobe Illustrator 19.0.0, SVG Export Plug-In . SVG Version: 6.00 Build 0)  -->
<svg version="1.1" id="Capa_1" xmlns="http://www.w3.org/2000/svg" xmlns:xlink="http://www.w3.org/1999/xlink" x="0px" y="0px"
	 viewBox="-41 164.9 512 512" style="enable-background:new -41 164.9 512 512;" xml:space="preserve">
<style type="text/css">
	.st0{fill:#FFFFFF;}
</style>
<path class="st0" d="M249.4,362.3c1.8-4.7,1.2-9.9-1.7-14c-5.8-8.4-16.9-8.8-24.3-1.7c-19.6,18.7-39.1,37-58.7,55.5
	c-3.8,3.6-5.6,8.4-5.1,13.3c0.5,4.8,3.3,9.1,7.7,11.8c9.3,5.6,18.8,11,28.1,16.3c-5.3,12.6-10.1,23.6-14.9,36
	c-2.9,7.5,0.4,15.7,7.7,19.3c5.7,2.8,12.3,2.2,18.3-3.5c19.4-18.5,39.2-37.1,58.7-55.5c3.8-3.6,5.7-8.5,5.1-13.4
	c-0.6-5-3.6-9.3-8.2-12c-9.2-5.3-18.4-10.6-27.6-15.9C239.5,386.6,244.7,374.4,249.4,362.3L249.4,362.3z M218.5,397.6
	c-1.8,4.2-0.3,8.7,3.7,11c10.8,6.2,21.5,12.5,32.3,18.7c1.1,0.6,1.1,0.7,0.3,1.5c-15.8,15-58.6,56-59.9,56.5
	c-0.1-0.1-0.5-0.2-0.4-0.4c5.3-13.7,10.9-26.6,16.9-40.7c1.5-3.5,0.9-8.3-3.8-11c-10.8-6.2-21.8-12.3-32.6-18.8
	c-0.8-0.5-0.8-0.7-0.1-1.4c20.9-19.8,58-55.3,59.8-56.5c0.4,0.1,0.5,0.3,0.5,0.4C230.1,370.6,224.2,384.2,218.5,397.6L218.5,397.6z
	 M470.9,343.4c-0.8-4.1-4.7-6.7-8.8-5.9l-49.7,9.6c-23.1,4.4-47.6-0.6-67-13.9l-29.4-20c-3.4-2.3-8.1-1.4-10.4,2
	c-2.3,3.4-1.4,8.1,2,10.4l29.4,20c22.8,15.5,51.4,21.4,78.3,16.2l49.7-9.6C469,351.4,471.6,347.4,470.9,343.4L470.9,343.4z
	 M110.6,292.1l111.4-27c1.9,2.9,4.4,5.4,7.5,7.3l56.4,38.4c3.4,2.3,8.1,1.5,10.4-2c2.3-3.4,1.4-8.1-2-10.4l-56.6-38.5
	c-2.1-1.4-3.7-3-4.4-5.6c-0.4-1.6-0.6-4.3,1.2-7.2c0-0.1,0.1-0.1,0.2-0.3c3.9-4.8,9.4-4.5,15-2.6l78.6,23.5c4,1.2,8.1-1.1,9.3-5
	c1.2-4-1.1-8.1-5-9.3L254.6,230c-11.2-4.8-24.1-1.7-31.4,7.5c-3,3.8-4.8,8.4-5.1,13.2L107,277.6c-6.5,1.7-13-3.4-13-10.1
	c0-4,2.2-7.6,5.7-9.3l150.2-75.8c5.8-2.9,12.6-3.2,18.7-0.7l126.8,52.2c3.7,1.5,7.5,2.7,11.4,3.5c6.2,1.3,13.2,2.2,19.4,1.3
	l38.4-6.6c4.1-0.7,6.8-4.6,6.1-8.7c-0.7-4.1-4.6-6.8-8.7-6.1l-38,6.5c-4.6,0.3-9.2-0.1-13.7-1c-3.2-0.7-6.2-1.6-9.3-2.8l-126.8-52.2
	c-10.1-4.2-21.4-3.7-31.2,1.2L93,244.7c-8.6,4.4-14,13.1-14,22.7C79,283.7,94.7,296.2,110.6,292.1L110.6,292.1z M151.8,506.2
	c-2.2,3.5-1.2,8.1,2.3,10.4c18.2,11.6,39.3,17.7,60.9,17.7c62.5,0,113.4-50.9,113.4-113.4S277.5,307.5,215,307.5
	s-113.4,50.9-113.4,113.4c0,27.5,10,54,28.1,74.7c2.7,3.1,7.5,3.4,10.6,0.7c3.1-2.7,3.4-7.5,0.7-10.6c-15.7-17.9-24.4-41-24.4-64.8
	c0-54.3,44.1-98.4,98.4-98.4s98.4,44.1,98.4,98.4c0,54.3-44.1,98.4-98.4,98.4c-18.8,0-37.1-5.3-52.9-15.4
	C158.7,501.7,154,502.7,151.8,506.2z M319.4,549.6l-111.4,27c-1.9-2.9-4.4-5.4-7.5-7.3L93.1,496.3c-22.7-15.5-51.3-21.4-78.3-16.2
	l-49.7,9.6c-4.1,0.8-6.7,4.7-5.9,8.8c0.8,4.1,4.7,6.7,8.8,5.9l49.7-9.6c23.1-4.4,47.6,0.6,67,13.9c0.2,0.1,107.7,73.3,107.9,73.4
	c4,2.4,6.2,7.7,2.9,12.3c-3.6,5.1-9.9,5-15.4,3.1l-46.5-13.9c-10.7-3.2-21.4-6.4-32.1-9.6c-4-1.2-8.1,1.1-9.3,5
	c-1.2,4,1.1,8.1,5,9.3c10.7,3.2,21.4,6.4,32.1,9.6l46,13.8c10.9,4.7,23.9,1.8,31.4-7.5c3.1-3.8,4.8-8.4,5.1-13.1L323,564.2
	c6.5-1.7,13,3.3,13,10.1c0,4-2.2,7.6-5.7,9.3l-150.2,75.8c-5.8,2.9-12.6,3.2-18.7,0.7L34.5,608c-3.7-1.5-7.5-2.5-11.4-3.5
	c-5.9-1.6-13.3-2.2-19.4-1.3l-38.4,6.6c-4.1,0.7-6.8,4.6-6.1,8.7c0.7,4.1,4.6,6.8,8.7,6.1l38-6.5c4.8-0.3,9.5,0.1,14.3,1.1
	c3,0.7,5.9,1.6,8.8,2.7l126.8,52.2c10.1,4.1,21.4,3.7,31.2-1.2L337,597.1c8.6-4.4,14-13.1,14-22.7
	C351,557.8,335.2,545.6,319.4,549.6L319.4,549.6z"/>
</svg>
