<?xml version="1.0" encoding="utf-8"?>
<!-- Generator: Adobe Illustrator 19.0.0, SVG Export Plug-In . SVG Version: 6.00 Build 0)  -->
<svg version="1.1" id="Capa_1" xmlns="http://www.w3.org/2000/svg" xmlns:xlink="http://www.w3.org/1999/xlink" x="0px" y="0px"
	 viewBox="-41 164.9 512 512" style="enable-background:new -41 164.9 512 512;" xml:space="preserve">
<style type="text/css">
	.st0{fill:#FFFFFF;}
</style>
<g>
	<path class="st0" d="M335.1,496.8h-20.9c-17.5,0-30.9,14.5-43.7,28.2c-3.2,3.5-6.4,6.9-9.2,9.7c-2.9,2.9-7.7,2.9-10.6,0l-29.5-29.5
		c-7.9-7.9-20.8-7.9-28.7,0c-7.9,7.9-7.9,20.9,0,28.7l12.6,12.6c2.9,2.9,2.9,7.7,0,10.6c-2.9,2.9-7.7,2.9-10.6,0L182,544.6
		c-13.7-13.7-13.7-36.3,0-49.9c13.7-13.7,36.2-13.7,49.9,0l24.1,24.1c1.2-1.3,2.4-2.6,3.6-3.9c14.9-16.1,30.7-33,54.6-33h5.8
		c-6.3-9.1-10-20.1-10-31.9v-52.6c0-9.6,3.9-18.4,10.3-24.7c6.4-6.3,15.1-10.3,24.7-10.3h43.2c9.6,0,18.4,3.9,24.7,10.3
		c6.3,6.4,10.3,15.1,10.3,24.7v52.6c0,11.8-3.7,22.8-10,31.9h6.1c14.2,0,27.2,5.8,36.5,15.2c9.4,9.4,15.2,22.3,15.2,36.5v125.8
		c0,4.1-3.3,7.5-7.5,7.5H307.4c-4.1,0-7.5-3.3-7.5-7.5v-84.5L281,593.7c-6.8,6.8-15.9,10.3-25,10.3c-9,0-18-3.4-24.9-10.3
		l-12.6-12.6c-2.9-2.9-2.9-7.7,0-10.6c2.9-2.9,7.7-2.9,10.6,0l12.6,12.6c4,4,9.2,5.9,14.3,5.9c5.2,0,10.5-2,14.4-5.9l31.7-31.7
		c2.9-2.9,7.7-2.9,10.6,0c1.4,1.5,2.2,3.4,2.2,5.3v95.1h91.2v-97.3c0-4.1,3.4-7.5,7.5-7.5s7.5,3.4,7.5,7.5v97.3H456V533.5
		c0-10.1-4.1-19.2-10.8-25.9c-6.7-6.6-15.8-10.8-25.9-10.8l-21.3,0c-9,6.1-19.8,9.6-31.5,9.6C354.9,506.5,344.1,502.9,335.1,496.8
		L335.1,496.8z M100.3,435l-50-17l-33.1,16.2v15.7c0,11.4,4.7,21.8,12.2,29.3c7.5,7.5,17.9,12.2,29.3,12.2s21.8-4.7,29.3-12.2
		c7.5-7.5,12.2-17.9,12.2-29.3V435z M17.1,417.6L46,403.5c1.8-1,4-1.3,6.1-0.6l48.1,16.3v-21.8c0-5.5-2.2-10.5-5.9-14.1
		c-3.6-3.6-8.6-5.9-14.1-5.9H37.1c-5.5,0-10.5,2.3-14.1,5.9c-3.6,3.6-5.9,8.6-5.9,14.1L17.1,417.6z M408.1,433.1
		c-12.7,2.1-35.2,2.7-53.5-14c-6.2,3.8-16.7,8.4-29.6,6.8v24c0,11.4,4.7,21.8,12.2,29.3c7.5,7.5,17.9,12.2,29.3,12.2
		c11.4,0,21.8-4.7,29.4-12.2c7.5-7.5,12.2-17.9,12.2-29.3L408.1,433.1L408.1,433.1z M325,410.8c9.2,1.8,18.6-1.2,25.6-7.2
		c3.1-2.7,7.9-2.4,10.5,0.8c15.5,17.8,37.2,15.7,46.9,13.5v-20.6c0-5.5-2.2-10.5-5.9-14.1c-3.6-3.6-8.6-5.9-14.1-5.9H345
		c-5.5,0-10.5,2.3-14.1,5.9c-3.6,3.6-5.9,8.6-5.9,14.1L325,410.8z M115.2,449.9c0,11.8-3.7,22.8-9.9,31.9h1.4
		c14.2,0,27.2,5.8,36.5,15.2c9.4,9.4,15.2,22.3,15.2,36.5v125.8c0,4.1-3.3,7.5-7.5,7.5c-61.5,0-122.9,0-184.4,0
		c-4.1,0-7.5-3.3-7.5-7.5V533.5c0-14.2,5.8-27.1,15.2-36.5c9.4-9.4,22.3-15.2,36.5-15.2h1.4c-6.3-9.1-10-20.1-10-31.9v-52.6
		c0-9.6,3.9-18.4,10.3-24.7c6.3-6.3,15.1-10.3,24.7-10.3h43.2c9.6,0,18.4,3.9,24.7,10.3c6.4,6.4,10.3,15.1,10.3,24.7L115.2,449.9
		L115.2,449.9z M90.2,496.8c-9,6.1-19.8,9.6-31.5,9.6c-11.6,0-22.5-3.5-31.5-9.6l-16.6,0c-10.1,0-19.2,4.1-25.9,10.8
		c-6.7,6.7-10.8,15.8-10.8,25.9v118.3H8.9v-97.3c0-4.1,3.3-7.5,7.5-7.5c4.1,0,7.5,3.4,7.5,7.5v97.3h69.6v-97.3
		c0-4.1,3.4-7.5,7.5-7.5s7.5,3.4,7.5,7.5v97.3h34.9V533.5c0-10.1-4.1-19.2-10.8-25.9c-6.7-6.6-15.8-10.8-25.9-10.8L90.2,496.8z
		 M257.4,225.9c-4.1,0-7.5-3.4-7.5-7.5c0-4.1,3.3-7.5,7.5-7.5h159.2c4.1,0,7.5,3.3,7.5,7.5s-3.3,7.5-7.5,7.5H257.4z M257.4,289.9
		c-4.1,0-7.5-3.3-7.5-7.5c0-4.1,3.3-7.5,7.5-7.5h124.9c4.1,0,7.5,3.4,7.5,7.5c0,4.1-3.3,7.5-7.5,7.5H257.4z M257.4,257.9
		c-4.1,0-7.5-3.3-7.5-7.5c0-4.1,3.3-7.5,7.5-7.5h159.2c4.1,0,7.5,3.3,7.5,7.5c0,4.2-3.3,7.5-7.5,7.5H257.4z M41.6,233.3
		c0,4.1-3.3,7.5-7.5,7.5c-4.1,0-7.5-3.4-7.5-7.5c0-8.8,3.6-16.9,9.4-22.7c5.8-5.8,13.8-9.4,22.7-9.4c8.9,0,16.9,3.6,22.7,9.4
		c5.8,5.8,9.4,13.8,9.4,22.7c0,8.9-3.6,16.9-9.4,22.7c-4.1,4.1-9.3,7.1-15.2,8.5c-0.2,4-3.5,7.1-7.5,7.1c-4.1,0-7.5-3.4-7.5-7.5
		v-6.2c0-4.1,3.3-7.5,7.5-7.5c4.7,0,9-1.9,12.1-5c3.1-3.1,5-7.3,5-12.1c0-4.7-1.9-9-5-12c-3.1-3.1-7.3-5-12.1-5c-4.7,0-9,1.9-12,5
		C43.6,224.4,41.6,228.6,41.6,233.3L41.6,233.3z M51.2,290.9c0-4.1,3.3-7.5,7.5-7.5c4.1,0,7.5,3.3,7.5,7.5v4.6
		c0,4.1-3.4,7.5-7.5,7.5s-7.5-3.3-7.5-7.5V290.9z M354,190c-4.1,0-7.5-3.3-7.5-7.5c0-4.1,3.3-7.5,7.5-7.5h93.9
		c6.4,0,12.2,2.6,16.4,6.8c4.2,4.2,6.8,10,6.8,16.4v104.4c0,6.4-2.6,12.2-6.8,16.4c-4.2,4.2-10,6.8-16.4,6.8h-127l-20.4,27.1
		c-3,4.1-9.1,3.9-12-0.1l-20.3-27h-41.9c-6.4,0-12.2-2.6-16.4-6.8c-4.2-4.2-6.8-10-6.8-16.4V198.2c0-6.4,2.6-12.2,6.8-16.4
		c4.2-4.2,10-6.8,16.4-6.8H320c4.1,0,7.5,3.4,7.5,7.5s-3.3,7.5-7.5,7.5h-93.9c-2.2,0-4.3,0.9-5.8,2.4c-1.5,1.5-2.4,3.5-2.4,5.8
		v104.4c0,2.2,0.9,4.3,2.4,5.8c1.5,1.5,3.5,2.4,5.8,2.4h45.6c2.3,0,4.5,1,6,3l16.7,22.2l16.3-21.6c1.3-2.1,3.7-3.5,6.4-3.5h130.8
		c2.2,0,4.3-0.9,5.8-2.4c1.5-1.5,2.4-3.5,2.4-5.8V198.2c0-2.2-0.9-4.3-2.4-5.8c-1.5-1.5-3.5-2.4-5.8-2.4L354,190L354,190z M75.7,190
		c-4.2,0-7.5-3.3-7.5-7.5c0-4.1,3.3-7.5,7.5-7.5h40.7c6.4,0,12.3,2.6,16.5,6.9c4.2,4.3,6.9,10.1,6.9,16.5v104
		c0,6.4-2.6,12.3-6.9,16.5c-4.3,4.2-10.1,6.9-16.5,6.9H85.1l-20.4,27.1c-3,4.1-9.1,3.9-12-0.1l-20.3-27H1c-6.5,0-12.3-2.6-16.5-6.9
		c-4.2-4.3-6.9-10.1-6.9-16.5v-104c0-6.4,2.6-12.3,6.9-16.5c4.2-4.2,10.1-6.9,16.5-6.9h40.7c4.1,0,7.5,3.4,7.5,7.5s-3.4,7.5-7.5,7.5
		H1c-2.3,0-4.4,1-5.9,2.5c-1.5,1.5-2.5,3.6-2.5,5.9v104c0,2.3,0.9,4.4,2.5,5.9c1.5,1.5,3.6,2.5,5.9,2.5h35c2.3,0,4.5,1,6,3
		l16.7,22.2L75,314.3c1.3-2.1,3.7-3.5,6.4-3.5h35c2.3,0,4.4-1,5.9-2.5c1.5-1.5,2.5-3.6,2.5-5.9v-104c0-2.3-1-4.4-2.5-5.9
		c-1.5-1.5-3.6-2.5-5.9-2.5H75.7z"/>
</g>
</svg>
