<?xml version="1.0" encoding="utf-8"?>
<!-- Generator: Adobe Illustrator 19.0.0, SVG Export Plug-In . SVG Version: 6.00 Build 0)  -->
<svg version="1.1" id="Warstwa_1" xmlns="http://www.w3.org/2000/svg" xmlns:xlink="http://www.w3.org/1999/xlink" x="0px" y="0px"
	 viewBox="-49 172.9 496 496" style="enable-background:new -49 172.9 496 496;" xml:space="preserve">
<style type="text/css">
	.st0{fill:#FFFFFF;}
</style>
<path class="st0" d="M168.7,295.1l-33.7-8.4v-14.1c9.8-8.8,16-21.5,16-35.7v-16c0-26.5-21.5-48-48-48s-48,21.5-48,48v16
	c0,14.2,6.2,26.9,16,35.7v14.1l-33.7,8.4C19.5,299.5,7,315.5,7,333.9v127h-56v96h88v112h128v-336h-16v88H55v-88H39v128H23v-127
	c0-11,7.5-20.6,18.2-23.3l35.4-8.8l10.1,10.1l-8,72l24.4,24.4l24.4-24.4l-8-72l10.1-10.1l35.4,8.8c10.7,2.7,18.2,12.3,18.2,23.3v135
	h16v-135C199,315.5,186.5,299.5,168.7,295.1z M48.9,476.9L24,497.6c-5,4.2-13,4.2-18,0l-24.9-20.7H48.9z M-33,486l28.7,23.9
	c5.4,4.5,12.2,7,19.3,7s13.9-2.5,19.3-7L63,486v54.9h-96V486z M55,436.9h96v216h-40v-184H95v184H55v-96h24v-96H55V436.9z M71,220.9
	c0-17.6,14.4-32,32-32s32,14.4,32,32v16c0,17.6-14.4,32-32,32s-32-14.4-32-32V220.9z M103,284.9c5.6,0,11-1,16-2.8v7.5l-16,16
	l-16-16v-7.5C92,283.9,97.4,284.9,103,284.9z M103,385.6l-7.6-7.6l7.6-68.6l7.6,68.6L103,385.6z"/>
<path class="st0" d="M416.7,295.1l-33.7-8.4v-14.1c9.8-8.8,16-21.5,16-35.7v-16c0-26.5-21.5-48-48-48s-48,21.5-48,48v16
	c0,14.2,6.2,26.9,16,35.7v14.1l-33.7,8.4c-17.8,4.5-30.3,20.4-30.3,38.8v135h16v-135c0-11,7.5-20.6,18.2-23.3l45.8-11.4v-17
	c5,1.8,10.4,2.8,16,2.8s11-1,16-2.8v17l45.8,11.4c10.7,2.7,18.2,12.3,18.2,23.3v135h16v-135C447,315.5,434.5,299.5,416.7,295.1z
	 M319,236.9v-16c0-17.6,14.4-32,32-32s32,14.4,32,32v16c0,17.6-14.4,32-32,32S319,254.5,319,236.9z"/>
<path class="st0" d="M399,420.9h-96v-88h-16v336h128v-336h-16V420.9z M359,652.9v-184h-16v184h-40v-216h96v216H359z"/>
<path class="st0" d="M191,252.9h65.2l30.8,24.6v-88.6c0-8.8-7.2-16-16-16h-80c-8.8,0-16,7.2-16,16v48
	C175,245.7,182.2,252.9,191,252.9z M191,188.9h80v55.4l-9.2-7.4H191V188.9z"/>
<path class="st0" d="M207,204.9h16v16h-16V204.9z"/>
<path class="st0" d="M239,204.9h16v16h-16V204.9z"/>
</svg>
